<?xml version="1.0" encoding="utf-8"?>
<!-- Generator: Adobe Illustrator 16.0.0, SVG Export Plug-In . SVG Version: 6.00 Build 0)  -->
<!DOCTYPE svg PUBLIC "-//W3C//DTD SVG 1.1//EN" "http://www.w3.org/Graphics/SVG/1.1/DTD/svg11.dtd">
<svg version="1.1" id="Calque_1" xmlns="http://www.w3.org/2000/svg" xmlns:xlink="http://www.w3.org/1999/xlink" x="0px" y="0px"
	 width="237.02px" height="82.666px" viewBox="0 0 237.02 82.666" enable-background="new 0 0 237.02 82.666" xml:space="preserve">
<g>
	<path fill="#FFFFFF" stroke="#8A8989" stroke-miterlimit="10" d="M227.52-283.334c0-6.667,0-13.333,0-20c78.667,0,157.333,0,236,0
		c0,6.667,0,13.333,0,20c-4.756,0.33-9.518,0.6-14.268,1c-13.127,1.106-23.11,7.692-30.727,18.087
		c-6.991,9.545-14.245,18.834-24.201,25.499c-20.4,13.657-43.096,17.954-66.752,13.069c-20.101-4.152-37.169-14.437-49.686-31.558
		c-4.804-6.572-10.351-12.951-16.711-17.952C251.48-282.811,239.46-283.534,227.52-283.334z"/>
</g>
<rect x="229" y="-306.001" fill="#FFFFFF" width="237.02" height="21"/>
<path fill="#FFFFFF" d="M0,0v20.999h0.02h0.5h9.691c8.286,0.524,16.982,2.354,24.274,8.088c5.717,4.493,11.214,10.397,16.807,18.051
	c12.091,16.538,28.706,27.09,49.383,31.361c6.22,1.284,12.444,1.936,18.501,1.936c16.966,0,33.073-5.023,47.872-14.931
	c9.943-6.655,17.062-15.804,24.076-25.38c8.119-11.082,18.578-17.236,31.087-18.29c3.253-0.273,6.563-0.49,9.766-0.7
	c0.677-0.044,1.354-0.09,2.029-0.135h2.514h0.5l0,0V0H0z"/>
<path fill="#F1F1F1" d="M236.52,20.999h-2.514c-0.677,0.045-1.354,0.091-2.029,0.135c-3.202,0.21-6.513,0.427-9.766,0.7
	c-12.509,1.054-22.968,7.208-31.087,18.29c-7.015,9.576-14.133,18.725-24.076,25.38c-14.799,9.906-30.906,14.931-47.872,14.931
	c-6.057,0-12.281-0.65-18.501-1.936c-20.677-4.271-37.292-14.823-49.383-31.361c-5.593-7.653-11.09-13.558-16.807-18.051
	c-7.292-5.733-15.988-7.563-24.274-8.088H0.52h-0.5v0.842l0.508-0.009c1.011-0.017,2.02-0.027,3.028-0.027
	c10.415,0,21.294,0.978,30.312,8.068c5.643,4.437,11.077,10.276,16.615,17.854c12.242,16.746,29.062,27.429,49.988,31.75
	c6.286,1.299,12.579,1.957,18.703,1.957c17.168,0,33.461-5.08,48.429-15.101c10.078-6.746,17.257-15.968,24.326-25.618
	c7.941-10.839,18.157-16.856,30.364-17.886c3.244-0.272,6.55-0.489,9.747-0.698c1.505-0.099,3.009-0.196,4.513-0.301l0.465-0.032
	v-0.8H236.52z"/>
</svg>
